<?xml version="1.0" encoding="utf-8"?>
<!-- Generator: Adobe Illustrator 18.1.1, SVG Export Plug-In . SVG Version: 6.00 Build 0)  -->
<!DOCTYPE svg PUBLIC "-//W3C//DTD SVG 1.1//EN" "http://www.w3.org/Graphics/SVG/1.1/DTD/svg11.dtd">
<svg version="1.1" id="Layer_1" xmlns="http://www.w3.org/2000/svg" xmlns:xlink="http://www.w3.org/1999/xlink" x="0px" y="0px"
	 viewBox="0 0.1 40 39.4" enable-background="new 0 0.1 40 39.4" xml:space="preserve">
<path fill="#FFFFFF" d="M36.7,7.4h-9.2h-2.4h-9.6V3.1H8.2v4.3H3.8c-1.4,0-2.4,1.1-2.4,2.4v24c0,1.4,1.1,2.4,2.4,2.4h33
	c1.4,0,2.4-1.1,2.4-2.4v-24C39,8.4,38.2,7.4,36.7,7.4z M20.3,27.4c-3.1,0-5.7-2.5-5.7-5.7s2.5-5.7,5.7-5.7s5.7,2.5,5.7,5.7
	S23.4,27.4,20.3,27.4z M6.3,12.2h9.3c-3.5,1.8-6,5.4-6,9.6c0,4.2,2.4,7.8,6,9.6H6.3V12.2z M34.3,31.3h-9.2c3.5-1.8,6-5.4,6-9.6
	c0-4.2-2.4-7.8-6-9.6l0,0h2.4h6.8L34.3,31.3L34.3,31.3z"/>
</svg>
