<?xml version="1.0" encoding="utf-8"?>
<!-- Generator: Adobe Illustrator 18.1.1, SVG Export Plug-In . SVG Version: 6.00 Build 0)  -->
<!DOCTYPE svg PUBLIC "-//W3C//DTD SVG 1.1//EN" "http://www.w3.org/Graphics/SVG/1.1/DTD/svg11.dtd">
<svg version="1.1" id="Layer_1" xmlns="http://www.w3.org/2000/svg" xmlns:xlink="http://www.w3.org/1999/xlink" x="0px" y="0px"
	 viewBox="0 0 29.2 33.2" enable-background="new 0 0 29.2 33.2" xml:space="preserve">
<path fill="#FFFFFF" d="M23.1,19.9c-0.2,5.1-4.9,9-10.1,7.9C9.8,27,7.2,24.3,6.7,21c-0.8-5.1,3.2-9.6,8.2-9.6c0.5,0,1,0.1,1.5,0.1
	l-3,2.9c-0.8,0.8-1,2.1-0.2,3c0.4,0.5,1,0.8,1.6,0.8c0.5,0,1.1-0.2,1.5-0.6l7.9-7.6l-7.6-7.9c-0.9-0.9-2.5-0.9-3.3,0.3
	c-0.6,0.8-0.4,2,0.3,2.7l1.5,1.5c0,0,0,0,0,0c-7.4,0-13.4,6.2-13.1,13.7C2,26.9,7.4,32.4,14,32.8c7.5,0.5,14-5.5,14-12.9
	c0-0.9-0.7-2.4-2.2-2.4C24.2,17.5,23.2,18.6,23.1,19.9z"/>
</svg>
