<?xml version="1.0" encoding="utf-8"?>
<!-- Generator: Adobe Illustrator 18.1.0, SVG Export Plug-In . SVG Version: 6.00 Build 0)  -->
<svg version="1.1" id="Layer_1" xmlns="http://www.w3.org/2000/svg" xmlns:xlink="http://www.w3.org/1999/xlink" x="0px" y="0px"
	 viewBox="0 0 32.2 38.5" enable-background="new 0 0 32.2 38.5" xml:space="preserve">
<g>
	<path fill="#FFFFFF" d="M10.9,9.7c0.5,0,1-0.2,1.4-0.6L14,7.5v19.2c0,1.1,0.9,2,2,2c1.1,0,2-0.9,2-2V7.5l1.9,1.9
		c0.4,0.4,0.9,0.6,1.4,0.6s1-0.2,1.4-0.6c0.8-0.8,0.8-2,0-2.8l-5.3-5.3c-0.1-0.1-0.2-0.2-0.3-0.3c0,0-0.1-0.1-0.1-0.1
		c-0.1,0-0.1-0.1-0.2-0.1c-0.1,0-0.1,0-0.2-0.1c-0.1,0-0.1,0-0.2-0.1c-0.1,0-0.3,0-0.4,0c0,0,0,0,0,0c0,0,0,0,0,0
		c-0.1,0-0.3,0-0.4,0c-0.1,0-0.1,0-0.2,0.1c-0.1,0-0.1,0-0.2,0.1c-0.1,0-0.1,0.1-0.2,0.1c-0.1,0-0.1,0.1-0.2,0.1
		c-0.1,0.1-0.2,0.2-0.3,0.3L9.5,6.3c-0.8,0.8-0.8,2,0,2.8C9.9,9.5,10.4,9.7,10.9,9.7z"/>
	<path fill="#FFFFFF" d="M29.6,14.3H20v4h7.6v15.9H4.4V18.3H12v-4H2.4c-1.1,0-2,0.9-2,2v19.9c0,1.1,0.9,2,2,2h27.3c1.1,0,2-0.9,2-2
		V16.3C31.6,15.2,30.8,14.3,29.6,14.3z"/>
</g>
</svg>
